<mxfile host="Electron" modified="2023-09-14T21:24:58.036Z" agent="Mozilla/5.0 (Windows NT 10.0; Win64; x64) AppleWebKit/537.36 (KHTML, like Gecko) draw.io/21.6.8 Chrome/114.0.5735.289 Electron/25.5.0 Safari/537.36" etag="F4_dEKyXmiM5hRX0ed0i" version="21.6.8" type="device" pages="5">
  <diagram name="/register" id="n4RXiYb7iekZJmX982mG">
    <mxGraphModel dx="875" dy="1659" grid="1" gridSize="10" guides="1" tooltips="1" connect="1" arrows="1" fold="1" page="1" pageScale="1" pageWidth="850" pageHeight="1100" background="none" math="0" shadow="0">
      <root>
        <mxCell id="DcINIHE9Md0JuFdxifOZ-0" />
        <mxCell id="DcINIHE9Md0JuFdxifOZ-1" parent="DcINIHE9Md0JuFdxifOZ-0" />
        <mxCell id="QFU8cy6q5ti2VS8Cwsc9-1" style="edgeStyle=none;curved=1;rounded=0;orthogonalLoop=1;jettySize=auto;html=1;fontSize=12;startSize=8;endSize=8;fontFamily=inter;fontSource=https%3A%2F%2Ffonts.googleapis.com%2Fcss%3Ffamily%3Dinter;" parent="DcINIHE9Md0JuFdxifOZ-1" source="QFU8cy6q5ti2VS8Cwsc9-0" edge="1">
          <mxGeometry relative="1" as="geometry">
            <mxPoint x="152" y="-710" as="targetPoint" />
          </mxGeometry>
        </mxCell>
        <mxCell id="QFU8cy6q5ti2VS8Cwsc9-0" value="Client" style="rounded=0;whiteSpace=wrap;html=1;fontFamily=inter;fontSource=https%3A%2F%2Ffonts.googleapis.com%2Fcss%3Ffamily%3Dinter;" parent="DcINIHE9Md0JuFdxifOZ-1" vertex="1">
          <mxGeometry x="93" y="-1090" width="120" height="40" as="geometry" />
        </mxCell>
        <mxCell id="QFU8cy6q5ti2VS8Cwsc9-4" style="edgeStyle=none;curved=1;rounded=0;orthogonalLoop=1;jettySize=auto;html=1;fontSize=12;startSize=8;endSize=8;fontFamily=inter;fontSource=https%3A%2F%2Ffonts.googleapis.com%2Fcss%3Ffamily%3Dinter;" parent="DcINIHE9Md0JuFdxifOZ-1" source="QFU8cy6q5ti2VS8Cwsc9-2" edge="1">
          <mxGeometry relative="1" as="geometry">
            <mxPoint x="463" y="-710" as="targetPoint" />
          </mxGeometry>
        </mxCell>
        <mxCell id="QFU8cy6q5ti2VS8Cwsc9-2" value="User" style="rounded=0;whiteSpace=wrap;html=1;fontFamily=inter;fontSource=https%3A%2F%2Ffonts.googleapis.com%2Fcss%3Ffamily%3Dinter;" parent="DcINIHE9Md0JuFdxifOZ-1" vertex="1">
          <mxGeometry x="403" y="-1090" width="120" height="40" as="geometry" />
        </mxCell>
        <mxCell id="QFU8cy6q5ti2VS8Cwsc9-5" style="edgeStyle=none;curved=1;rounded=0;orthogonalLoop=1;jettySize=auto;html=1;fontSize=12;startSize=8;endSize=8;fontFamily=inter;fontSource=https%3A%2F%2Ffonts.googleapis.com%2Fcss%3Ffamily%3Dinter;" parent="DcINIHE9Md0JuFdxifOZ-1" source="QFU8cy6q5ti2VS8Cwsc9-3" edge="1">
          <mxGeometry relative="1" as="geometry">
            <mxPoint x="643" y="-710" as="targetPoint" />
          </mxGeometry>
        </mxCell>
        <mxCell id="QFU8cy6q5ti2VS8Cwsc9-3" value="Identity" style="rounded=0;whiteSpace=wrap;html=1;fontFamily=inter;fontSource=https%3A%2F%2Ffonts.googleapis.com%2Fcss%3Ffamily%3Dinter;" parent="DcINIHE9Md0JuFdxifOZ-1" vertex="1">
          <mxGeometry x="583" y="-1090" width="120" height="40" as="geometry" />
        </mxCell>
        <mxCell id="gwxwzvbnGM9TcDCXfKu9-2" value="validate credentials" style="text;html=1;strokeColor=none;fillColor=none;align=left;verticalAlign=middle;whiteSpace=wrap;rounded=0;fontSize=12;fontFamily=inter;fontSource=https%3A%2F%2Ffonts.googleapis.com%2Fcss%3Ffamily%3Dinter;" parent="DcINIHE9Md0JuFdxifOZ-1" vertex="1">
          <mxGeometry x="478" y="-1010" width="145" height="20" as="geometry" />
        </mxCell>
        <mxCell id="-JjzeGY5DmQqjHO0HbsP-1" style="edgeStyle=none;curved=1;rounded=0;orthogonalLoop=1;jettySize=auto;html=1;entryX=0;entryY=0.5;entryDx=0;entryDy=0;fontSize=12;startSize=8;endSize=8;" parent="DcINIHE9Md0JuFdxifOZ-1" edge="1">
          <mxGeometry relative="1" as="geometry">
            <mxPoint x="452.9999999999998" y="-820" as="sourcePoint" />
            <mxPoint x="452.9999999999998" y="-820" as="targetPoint" />
          </mxGeometry>
        </mxCell>
        <mxCell id="aDpPlxbRU-LtX5YqkH5g-9" style="edgeStyle=none;curved=1;rounded=0;orthogonalLoop=1;jettySize=auto;html=1;entryX=0;entryY=0;entryDx=0;entryDy=0;fontSize=12;startSize=8;endSize=8;exitX=1;exitY=1;exitDx=0;exitDy=0;dashed=1;" parent="DcINIHE9Md0JuFdxifOZ-1" source="aDpPlxbRU-LtX5YqkH5g-2" target="aDpPlxbRU-LtX5YqkH5g-4" edge="1">
          <mxGeometry relative="1" as="geometry" />
        </mxCell>
        <mxCell id="aDpPlxbRU-LtX5YqkH5g-4" value="2" style="rounded=0;whiteSpace=wrap;html=1;fontSize=16;" parent="DcINIHE9Md0JuFdxifOZ-1" vertex="1">
          <mxGeometry x="453" y="-1009.25" width="20" height="19.25" as="geometry" />
        </mxCell>
        <mxCell id="aDpPlxbRU-LtX5YqkH5g-14" value="" style="group;fillColor=#cdeb8b;strokeColor=#36393d;" parent="DcINIHE9Md0JuFdxifOZ-1" vertex="1" connectable="0">
          <mxGeometry x="453" y="-890" width="170" height="20" as="geometry" />
        </mxCell>
        <mxCell id="aDpPlxbRU-LtX5YqkH5g-12" value="6" style="rounded=0;whiteSpace=wrap;html=1;fontSize=16;" parent="aDpPlxbRU-LtX5YqkH5g-14" vertex="1">
          <mxGeometry width="20" height="19.25" as="geometry" />
        </mxCell>
        <mxCell id="aDpPlxbRU-LtX5YqkH5g-13" value="publish user:created&amp;nbsp;" style="text;html=1;strokeColor=none;fillColor=none;align=left;verticalAlign=middle;whiteSpace=wrap;rounded=0;fontSize=12;fontFamily=inter;fontSource=https%3A%2F%2Ffonts.googleapis.com%2Fcss%3Ffamily%3Dinter;" parent="aDpPlxbRU-LtX5YqkH5g-14" vertex="1">
          <mxGeometry x="25" width="145" height="20" as="geometry" />
        </mxCell>
        <mxCell id="aDpPlxbRU-LtX5YqkH5g-18" value="" style="group" parent="DcINIHE9Md0JuFdxifOZ-1" vertex="1" connectable="0">
          <mxGeometry x="453" y="-980.75" width="170" height="20" as="geometry" />
        </mxCell>
        <mxCell id="aDpPlxbRU-LtX5YqkH5g-15" value="3" style="rounded=0;whiteSpace=wrap;html=1;fontSize=16;" parent="aDpPlxbRU-LtX5YqkH5g-18" vertex="1">
          <mxGeometry y="0.75" width="20" height="19.25" as="geometry" />
        </mxCell>
        <mxCell id="aDpPlxbRU-LtX5YqkH5g-17" value="check if email exists" style="text;html=1;strokeColor=none;fillColor=none;align=left;verticalAlign=middle;whiteSpace=wrap;rounded=0;fontSize=12;fontFamily=inter;fontSource=https%3A%2F%2Ffonts.googleapis.com%2Fcss%3Ffamily%3Dinter;" parent="aDpPlxbRU-LtX5YqkH5g-18" vertex="1">
          <mxGeometry x="25" width="145" height="20" as="geometry" />
        </mxCell>
        <mxCell id="aDpPlxbRU-LtX5YqkH5g-19" value="" style="group" parent="DcINIHE9Md0JuFdxifOZ-1" vertex="1" connectable="0">
          <mxGeometry x="453" y="-950" width="170" height="20" as="geometry" />
        </mxCell>
        <mxCell id="aDpPlxbRU-LtX5YqkH5g-20" value="4" style="rounded=0;whiteSpace=wrap;html=1;fontSize=16;" parent="aDpPlxbRU-LtX5YqkH5g-19" vertex="1">
          <mxGeometry y="0.75" width="20" height="19.25" as="geometry" />
        </mxCell>
        <mxCell id="aDpPlxbRU-LtX5YqkH5g-21" value="hash password" style="text;html=1;strokeColor=none;fillColor=none;align=left;verticalAlign=middle;whiteSpace=wrap;rounded=0;fontSize=12;fontFamily=inter;fontSource=https%3A%2F%2Ffonts.googleapis.com%2Fcss%3Ffamily%3Dinter;" parent="aDpPlxbRU-LtX5YqkH5g-19" vertex="1">
          <mxGeometry x="25" width="145" height="20" as="geometry" />
        </mxCell>
        <mxCell id="aDpPlxbRU-LtX5YqkH5g-22" value="" style="group" parent="DcINIHE9Md0JuFdxifOZ-1" vertex="1" connectable="0">
          <mxGeometry x="453" y="-920" width="170" height="20" as="geometry" />
        </mxCell>
        <mxCell id="aDpPlxbRU-LtX5YqkH5g-23" value="5" style="rounded=0;whiteSpace=wrap;html=1;fontSize=16;" parent="aDpPlxbRU-LtX5YqkH5g-22" vertex="1">
          <mxGeometry y="0.75" width="20" height="19.25" as="geometry" />
        </mxCell>
        <mxCell id="aDpPlxbRU-LtX5YqkH5g-24" value="save user to database" style="text;html=1;strokeColor=none;fillColor=none;align=left;verticalAlign=middle;whiteSpace=wrap;rounded=0;fontSize=12;fontFamily=inter;fontSource=https%3A%2F%2Ffonts.googleapis.com%2Fcss%3Ffamily%3Dinter;" parent="aDpPlxbRU-LtX5YqkH5g-22" vertex="1">
          <mxGeometry x="25" width="145" height="20" as="geometry" />
        </mxCell>
        <mxCell id="aDpPlxbRU-LtX5YqkH5g-29" style="edgeStyle=none;curved=1;rounded=0;orthogonalLoop=1;jettySize=auto;html=1;exitX=0.5;exitY=1;exitDx=0;exitDy=0;entryX=0;entryY=0;entryDx=0;entryDy=0;fontSize=12;startSize=8;endSize=8;" parent="DcINIHE9Md0JuFdxifOZ-1" source="aDpPlxbRU-LtX5YqkH5g-12" target="aDpPlxbRU-LtX5YqkH5g-27" edge="1">
          <mxGeometry relative="1" as="geometry" />
        </mxCell>
        <mxCell id="aDpPlxbRU-LtX5YqkH5g-39" style="edgeStyle=none;curved=1;rounded=0;orthogonalLoop=1;jettySize=auto;html=1;fontSize=12;startSize=8;endSize=8;exitX=0;exitY=1;exitDx=0;exitDy=0;dashed=1;" parent="DcINIHE9Md0JuFdxifOZ-1" source="aDpPlxbRU-LtX5YqkH5g-35" edge="1">
          <mxGeometry relative="1" as="geometry">
            <mxPoint x="153" y="-841" as="targetPoint" />
            <mxPoint x="463" y="-840" as="sourcePoint" />
          </mxGeometry>
        </mxCell>
        <mxCell id="aDpPlxbRU-LtX5YqkH5g-35" value="7" style="rounded=0;whiteSpace=wrap;html=1;fontSize=16;" parent="DcINIHE9Md0JuFdxifOZ-1" vertex="1">
          <mxGeometry x="453" y="-860" width="20" height="19.25" as="geometry" />
        </mxCell>
        <mxCell id="aDpPlxbRU-LtX5YqkH5g-36" value="send 201 status" style="text;html=1;strokeColor=none;fillColor=none;align=left;verticalAlign=middle;whiteSpace=wrap;rounded=0;fontSize=12;fontFamily=inter;fontSource=https%3A%2F%2Ffonts.googleapis.com%2Fcss%3Ffamily%3Dinter;" parent="DcINIHE9Md0JuFdxifOZ-1" vertex="1">
          <mxGeometry x="478" y="-860" width="145" height="20" as="geometry" />
        </mxCell>
        <mxCell id="aDpPlxbRU-LtX5YqkH5g-27" value="6.1" style="rounded=0;whiteSpace=wrap;html=1;fontSize=16;" parent="DcINIHE9Md0JuFdxifOZ-1" vertex="1">
          <mxGeometry x="628" y="-870" width="30" height="79.25" as="geometry" />
        </mxCell>
        <mxCell id="aDpPlxbRU-LtX5YqkH5g-28" value="saves user(email) &lt;br&gt;in database" style="text;html=1;strokeColor=none;fillColor=none;align=left;verticalAlign=middle;whiteSpace=wrap;rounded=0;fontSize=12;fontFamily=inter;fontSource=https%3A%2F%2Ffonts.googleapis.com%2Fcss%3Ffamily%3Dinter;" parent="DcINIHE9Md0JuFdxifOZ-1" vertex="1">
          <mxGeometry x="663" y="-869.25" width="175" height="40" as="geometry" />
        </mxCell>
        <mxCell id="PiZ9QMWinx-LmMQ3m6ik-0" value="" style="group" parent="DcINIHE9Md0JuFdxifOZ-1" vertex="1" connectable="0">
          <mxGeometry x="13" y="-1032.5" width="150" height="40" as="geometry" />
        </mxCell>
        <mxCell id="1SiXSLJkxfQEVCnoLtcS-28" value="client sends email, password and&lt;br style=&quot;border-color: var(--border-color);&quot;&gt;&lt;span style=&quot;background-color: rgb(255, 255, 255);&quot;&gt;displayName&lt;/span&gt;" style="text;html=1;strokeColor=none;fillColor=none;align=right;verticalAlign=middle;whiteSpace=wrap;rounded=0;fontSize=12;fontFamily=inter;fontSource=https%3A%2F%2Ffonts.googleapis.com%2Fcss%3Ffamily%3Dinter;" parent="PiZ9QMWinx-LmMQ3m6ik-0" vertex="1">
          <mxGeometry width="120" height="40" as="geometry" />
        </mxCell>
        <mxCell id="aDpPlxbRU-LtX5YqkH5g-2" value="1" style="rounded=0;whiteSpace=wrap;html=1;fontSize=16;" parent="PiZ9QMWinx-LmMQ3m6ik-0" vertex="1">
          <mxGeometry x="130" y="2.5" width="20" height="20" as="geometry" />
        </mxCell>
      </root>
    </mxGraphModel>
  </diagram>
  <diagram id="4Roz_05XzpMFhvkBFWob" name="/confirm-email">
    <mxGraphModel dx="1235" dy="1958" grid="1" gridSize="10" guides="1" tooltips="1" connect="1" arrows="1" fold="1" page="1" pageScale="1" pageWidth="827" pageHeight="1169" math="0" shadow="0">
      <root>
        <mxCell id="0" />
        <mxCell id="1" parent="0" />
        <mxCell id="yQAr02pDaFe2VWgrR58J-65" value="" style="group;fillColor=#cdeb8b;strokeColor=#36393d;fontSize=11;" vertex="1" connectable="0" parent="1">
          <mxGeometry x="442" y="-890" width="170" height="20" as="geometry" />
        </mxCell>
        <mxCell id="yQAr02pDaFe2VWgrR58J-67" value="publish email:created&amp;nbsp;" style="text;html=1;strokeColor=none;fillColor=none;align=left;verticalAlign=middle;whiteSpace=wrap;rounded=0;fontSize=12;fontFamily=inter;fontSource=https%3A%2F%2Ffonts.googleapis.com%2Fcss%3Ffamily%3Dinter;" vertex="1" parent="yQAr02pDaFe2VWgrR58J-65">
          <mxGeometry x="25" width="145" height="20" as="geometry" />
        </mxCell>
        <mxCell id="yQAr02pDaFe2VWgrR58J-1" style="edgeStyle=none;curved=1;rounded=0;orthogonalLoop=1;jettySize=auto;html=1;fontSize=12;startSize=8;endSize=8;fontFamily=inter;fontSource=https%3A%2F%2Ffonts.googleapis.com%2Fcss%3Ffamily%3Dinter;" edge="1" parent="1" source="yQAr02pDaFe2VWgrR58J-2">
          <mxGeometry relative="1" as="geometry">
            <mxPoint x="258" y="-740" as="targetPoint" />
          </mxGeometry>
        </mxCell>
        <mxCell id="yQAr02pDaFe2VWgrR58J-2" value="Client" style="rounded=0;whiteSpace=wrap;html=1;fontFamily=inter;fontSource=https%3A%2F%2Ffonts.googleapis.com%2Fcss%3Ffamily%3Dinter;" vertex="1" parent="1">
          <mxGeometry x="200" y="-1160" width="120" height="40" as="geometry" />
        </mxCell>
        <mxCell id="yQAr02pDaFe2VWgrR58J-3" style="edgeStyle=none;curved=1;rounded=0;orthogonalLoop=1;jettySize=auto;html=1;fontSize=12;startSize=8;endSize=8;fontFamily=inter;fontSource=https%3A%2F%2Ffonts.googleapis.com%2Fcss%3Ffamily%3Dinter;" edge="1" parent="1" source="yQAr02pDaFe2VWgrR58J-4">
          <mxGeometry relative="1" as="geometry">
            <mxPoint x="452" y="-680" as="targetPoint" />
          </mxGeometry>
        </mxCell>
        <mxCell id="yQAr02pDaFe2VWgrR58J-4" value="User" style="rounded=0;whiteSpace=wrap;html=1;fontFamily=inter;fontSource=https%3A%2F%2Ffonts.googleapis.com%2Fcss%3Ffamily%3Dinter;" vertex="1" parent="1">
          <mxGeometry x="392" y="-1160" width="120" height="40" as="geometry" />
        </mxCell>
        <mxCell id="yQAr02pDaFe2VWgrR58J-5" style="edgeStyle=none;curved=1;rounded=0;orthogonalLoop=1;jettySize=auto;html=1;fontSize=12;startSize=8;endSize=8;fontFamily=inter;fontSource=https%3A%2F%2Ffonts.googleapis.com%2Fcss%3Ffamily%3Dinter;" edge="1" parent="1" source="yQAr02pDaFe2VWgrR58J-6">
          <mxGeometry relative="1" as="geometry">
            <mxPoint x="630" y="-680" as="targetPoint" />
          </mxGeometry>
        </mxCell>
        <mxCell id="yQAr02pDaFe2VWgrR58J-6" value="Email" style="rounded=0;whiteSpace=wrap;html=1;fontFamily=inter;fontSource=https%3A%2F%2Ffonts.googleapis.com%2Fcss%3Ffamily%3Dinter;" vertex="1" parent="1">
          <mxGeometry x="572" y="-1160" width="120" height="40" as="geometry" />
        </mxCell>
        <mxCell id="yQAr02pDaFe2VWgrR58J-7" value="validate credentials" style="text;html=1;strokeColor=none;fillColor=none;align=left;verticalAlign=middle;whiteSpace=wrap;rounded=0;fontSize=12;fontFamily=inter;fontSource=https%3A%2F%2Ffonts.googleapis.com%2Fcss%3Ffamily%3Dinter;" vertex="1" parent="1">
          <mxGeometry x="467" y="-1080" width="145" height="20" as="geometry" />
        </mxCell>
        <mxCell id="yQAr02pDaFe2VWgrR58J-8" style="edgeStyle=none;curved=1;rounded=0;orthogonalLoop=1;jettySize=auto;html=1;entryX=0;entryY=0.5;entryDx=0;entryDy=0;fontSize=12;startSize=8;endSize=8;" edge="1" parent="1">
          <mxGeometry relative="1" as="geometry">
            <mxPoint x="441.9999999999998" y="-890" as="sourcePoint" />
            <mxPoint x="441.9999999999998" y="-890" as="targetPoint" />
          </mxGeometry>
        </mxCell>
        <mxCell id="yQAr02pDaFe2VWgrR58J-9" style="edgeStyle=none;curved=1;rounded=0;orthogonalLoop=1;jettySize=auto;html=1;entryX=0;entryY=0;entryDx=0;entryDy=0;fontSize=12;startSize=8;endSize=8;exitX=1;exitY=1;exitDx=0;exitDy=0;dashed=1;" edge="1" parent="1" source="yQAr02pDaFe2VWgrR58J-31" target="yQAr02pDaFe2VWgrR58J-10">
          <mxGeometry relative="1" as="geometry" />
        </mxCell>
        <mxCell id="yQAr02pDaFe2VWgrR58J-10" value="2" style="rounded=0;whiteSpace=wrap;html=1;fontSize=16;" vertex="1" parent="1">
          <mxGeometry x="442" y="-1079.25" width="20" height="19.25" as="geometry" />
        </mxCell>
        <mxCell id="yQAr02pDaFe2VWgrR58J-11" value="" style="group;fillColor=#cdeb8b;strokeColor=#36393d;" vertex="1" connectable="0" parent="1">
          <mxGeometry x="442" y="-960" width="170" height="20" as="geometry" />
        </mxCell>
        <mxCell id="yQAr02pDaFe2VWgrR58J-12" value="6" style="rounded=0;whiteSpace=wrap;html=1;fontSize=16;" vertex="1" parent="yQAr02pDaFe2VWgrR58J-11">
          <mxGeometry width="20" height="19.25" as="geometry" />
        </mxCell>
        <mxCell id="yQAr02pDaFe2VWgrR58J-13" value="publish user:created&amp;nbsp;" style="text;html=1;strokeColor=none;fillColor=none;align=left;verticalAlign=middle;whiteSpace=wrap;rounded=0;fontSize=12;fontFamily=inter;fontSource=https%3A%2F%2Ffonts.googleapis.com%2Fcss%3Ffamily%3Dinter;" vertex="1" parent="yQAr02pDaFe2VWgrR58J-11">
          <mxGeometry x="25" width="145" height="20" as="geometry" />
        </mxCell>
        <mxCell id="yQAr02pDaFe2VWgrR58J-14" value="" style="group" vertex="1" connectable="0" parent="1">
          <mxGeometry x="442" y="-1050.75" width="170" height="20" as="geometry" />
        </mxCell>
        <mxCell id="yQAr02pDaFe2VWgrR58J-15" value="3" style="rounded=0;whiteSpace=wrap;html=1;fontSize=16;" vertex="1" parent="yQAr02pDaFe2VWgrR58J-14">
          <mxGeometry y="0.75" width="20" height="19.25" as="geometry" />
        </mxCell>
        <mxCell id="yQAr02pDaFe2VWgrR58J-16" value="check if email exists" style="text;html=1;strokeColor=none;fillColor=none;align=left;verticalAlign=middle;whiteSpace=wrap;rounded=0;fontSize=12;fontFamily=inter;fontSource=https%3A%2F%2Ffonts.googleapis.com%2Fcss%3Ffamily%3Dinter;" vertex="1" parent="yQAr02pDaFe2VWgrR58J-14">
          <mxGeometry x="25" width="145" height="20" as="geometry" />
        </mxCell>
        <mxCell id="yQAr02pDaFe2VWgrR58J-17" value="" style="group" vertex="1" connectable="0" parent="1">
          <mxGeometry x="442" y="-1020" width="170" height="20" as="geometry" />
        </mxCell>
        <mxCell id="yQAr02pDaFe2VWgrR58J-18" value="4" style="rounded=0;whiteSpace=wrap;html=1;fontSize=16;" vertex="1" parent="yQAr02pDaFe2VWgrR58J-17">
          <mxGeometry y="0.75" width="20" height="19.25" as="geometry" />
        </mxCell>
        <mxCell id="yQAr02pDaFe2VWgrR58J-19" value="hash password" style="text;html=1;strokeColor=none;fillColor=none;align=left;verticalAlign=middle;whiteSpace=wrap;rounded=0;fontSize=12;fontFamily=inter;fontSource=https%3A%2F%2Ffonts.googleapis.com%2Fcss%3Ffamily%3Dinter;" vertex="1" parent="yQAr02pDaFe2VWgrR58J-17">
          <mxGeometry x="25" width="145" height="20" as="geometry" />
        </mxCell>
        <mxCell id="yQAr02pDaFe2VWgrR58J-20" value="" style="group" vertex="1" connectable="0" parent="1">
          <mxGeometry x="442" y="-990" width="170" height="20" as="geometry" />
        </mxCell>
        <mxCell id="yQAr02pDaFe2VWgrR58J-21" value="5" style="rounded=0;whiteSpace=wrap;html=1;fontSize=16;" vertex="1" parent="yQAr02pDaFe2VWgrR58J-20">
          <mxGeometry y="0.75" width="20" height="19.25" as="geometry" />
        </mxCell>
        <mxCell id="yQAr02pDaFe2VWgrR58J-22" value="save user to database" style="text;html=1;strokeColor=none;fillColor=none;align=left;verticalAlign=middle;whiteSpace=wrap;rounded=0;fontSize=12;fontFamily=inter;fontSource=https%3A%2F%2Ffonts.googleapis.com%2Fcss%3Ffamily%3Dinter;" vertex="1" parent="yQAr02pDaFe2VWgrR58J-20">
          <mxGeometry x="25" width="145" height="20" as="geometry" />
        </mxCell>
        <mxCell id="yQAr02pDaFe2VWgrR58J-23" style="edgeStyle=none;curved=1;rounded=0;orthogonalLoop=1;jettySize=auto;html=1;exitX=0.5;exitY=1;exitDx=0;exitDy=0;entryX=0;entryY=0;entryDx=0;entryDy=0;fontSize=12;startSize=8;endSize=8;" edge="1" parent="1" source="yQAr02pDaFe2VWgrR58J-12" target="yQAr02pDaFe2VWgrR58J-27">
          <mxGeometry relative="1" as="geometry" />
        </mxCell>
        <mxCell id="yQAr02pDaFe2VWgrR58J-24" style="edgeStyle=none;curved=1;rounded=0;orthogonalLoop=1;jettySize=auto;html=1;fontSize=12;startSize=8;endSize=8;exitX=0;exitY=1;exitDx=0;exitDy=0;dashed=1;" edge="1" parent="1" source="yQAr02pDaFe2VWgrR58J-25">
          <mxGeometry relative="1" as="geometry">
            <mxPoint x="260" y="-911" as="targetPoint" />
            <mxPoint x="452" y="-910" as="sourcePoint" />
          </mxGeometry>
        </mxCell>
        <mxCell id="yQAr02pDaFe2VWgrR58J-25" value="7" style="rounded=0;whiteSpace=wrap;html=1;fontSize=16;" vertex="1" parent="1">
          <mxGeometry x="442" y="-930" width="20" height="19.25" as="geometry" />
        </mxCell>
        <mxCell id="yQAr02pDaFe2VWgrR58J-26" value="send 201 status" style="text;html=1;strokeColor=none;fillColor=none;align=left;verticalAlign=middle;whiteSpace=wrap;rounded=0;fontSize=12;fontFamily=inter;fontSource=https%3A%2F%2Ffonts.googleapis.com%2Fcss%3Ffamily%3Dinter;" vertex="1" parent="1">
          <mxGeometry x="467" y="-930" width="145" height="20" as="geometry" />
        </mxCell>
        <mxCell id="yQAr02pDaFe2VWgrR58J-29" value="" style="group" vertex="1" connectable="0" parent="1">
          <mxGeometry x="120" y="-1102.5" width="150" height="40" as="geometry" />
        </mxCell>
        <mxCell id="yQAr02pDaFe2VWgrR58J-30" value="sends email, password and&lt;br style=&quot;border-color: var(--border-color);&quot;&gt;&lt;span style=&quot;background-color: rgb(255, 255, 255);&quot;&gt;displayName&lt;/span&gt;" style="text;html=1;strokeColor=none;fillColor=none;align=right;verticalAlign=middle;whiteSpace=wrap;rounded=0;fontSize=12;fontFamily=inter;fontSource=https%3A%2F%2Ffonts.googleapis.com%2Fcss%3Ffamily%3Dinter;" vertex="1" parent="yQAr02pDaFe2VWgrR58J-29">
          <mxGeometry width="120" height="40" as="geometry" />
        </mxCell>
        <mxCell id="yQAr02pDaFe2VWgrR58J-31" value="1" style="rounded=0;whiteSpace=wrap;html=1;fontSize=16;" vertex="1" parent="yQAr02pDaFe2VWgrR58J-29">
          <mxGeometry x="130" y="2.5" width="20" height="20" as="geometry" />
        </mxCell>
        <mxCell id="yQAr02pDaFe2VWgrR58J-61" value="" style="group" vertex="1" connectable="0" parent="1">
          <mxGeometry x="617" y="-880" width="173" height="50" as="geometry" />
        </mxCell>
        <mxCell id="yQAr02pDaFe2VWgrR58J-59" value="6.2" style="rounded=0;whiteSpace=wrap;html=1;fontSize=16;container=0;" vertex="1" parent="yQAr02pDaFe2VWgrR58J-61">
          <mxGeometry width="30" height="50" as="geometry" />
        </mxCell>
        <mxCell id="yQAr02pDaFe2VWgrR58J-60" value="send the email." style="text;html=1;strokeColor=none;fillColor=none;align=left;verticalAlign=top;whiteSpace=wrap;rounded=0;fontSize=12;fontFamily=inter;fontSource=https%3A%2F%2Ffonts.googleapis.com%2Fcss%3Ffamily%3Dinter;container=0;" vertex="1" parent="yQAr02pDaFe2VWgrR58J-61">
          <mxGeometry x="35" width="138" height="50" as="geometry" />
        </mxCell>
        <mxCell id="yQAr02pDaFe2VWgrR58J-62" value="" style="group" vertex="1" connectable="0" parent="1">
          <mxGeometry x="617" y="-940" width="173" height="50" as="geometry" />
        </mxCell>
        <mxCell id="yQAr02pDaFe2VWgrR58J-27" value="6.1" style="rounded=0;whiteSpace=wrap;html=1;fontSize=16;" vertex="1" parent="yQAr02pDaFe2VWgrR58J-62">
          <mxGeometry width="30" height="50" as="geometry" />
        </mxCell>
        <mxCell id="yQAr02pDaFe2VWgrR58J-28" value="creates a email confirmation token." style="text;html=1;strokeColor=none;fillColor=none;align=left;verticalAlign=top;whiteSpace=wrap;rounded=0;fontSize=12;fontFamily=inter;fontSource=https%3A%2F%2Ffonts.googleapis.com%2Fcss%3Ffamily%3Dinter;" vertex="1" parent="yQAr02pDaFe2VWgrR58J-62">
          <mxGeometry x="35" width="138" height="50" as="geometry" />
        </mxCell>
        <mxCell id="yQAr02pDaFe2VWgrR58J-63" value="8" style="rounded=0;whiteSpace=wrap;html=1;fontSize=16;" vertex="1" parent="1">
          <mxGeometry x="442" y="-890" width="20" height="19.25" as="geometry" />
        </mxCell>
        <mxCell id="yQAr02pDaFe2VWgrR58J-64" style="edgeStyle=none;curved=1;rounded=0;orthogonalLoop=1;jettySize=auto;html=1;exitX=0;exitY=1;exitDx=0;exitDy=0;entryX=1;entryY=0;entryDx=0;entryDy=0;fontSize=12;startSize=8;endSize=8;" edge="1" parent="1" source="yQAr02pDaFe2VWgrR58J-27" target="yQAr02pDaFe2VWgrR58J-63">
          <mxGeometry relative="1" as="geometry" />
        </mxCell>
        <mxCell id="yQAr02pDaFe2VWgrR58J-71" value="9" style="rounded=0;whiteSpace=wrap;html=1;fontSize=16;" vertex="1" parent="1">
          <mxGeometry x="442" y="-860" width="20" height="19.25" as="geometry" />
        </mxCell>
        <mxCell id="yQAr02pDaFe2VWgrR58J-72" value="save email token?" style="text;html=1;strokeColor=none;fillColor=none;align=left;verticalAlign=middle;whiteSpace=wrap;rounded=0;fontSize=12;fontFamily=inter;fontSource=https%3A%2F%2Ffonts.googleapis.com%2Fcss%3Ffamily%3Dinter;" vertex="1" parent="1">
          <mxGeometry x="467" y="-860" width="145" height="20" as="geometry" />
        </mxCell>
        <mxCell id="yQAr02pDaFe2VWgrR58J-75" style="edgeStyle=none;curved=1;rounded=0;orthogonalLoop=1;jettySize=auto;html=1;fontSize=12;startSize=8;endSize=8;" edge="1" parent="1" source="yQAr02pDaFe2VWgrR58J-74">
          <mxGeometry relative="1" as="geometry">
            <mxPoint x="70" y="-730" as="targetPoint" />
          </mxGeometry>
        </mxCell>
        <mxCell id="yQAr02pDaFe2VWgrR58J-74" value="Gmail" style="rounded=0;whiteSpace=wrap;html=1;fontFamily=inter;fontSource=https%3A%2F%2Ffonts.googleapis.com%2Fcss%3Ffamily%3Dinter;" vertex="1" parent="1">
          <mxGeometry x="10" y="-1160" width="120" height="40" as="geometry" />
        </mxCell>
        <mxCell id="yQAr02pDaFe2VWgrR58J-78" value="" style="group" vertex="1" connectable="0" parent="1">
          <mxGeometry x="60" y="-830" width="170" height="40" as="geometry" />
        </mxCell>
        <mxCell id="yQAr02pDaFe2VWgrR58J-79" value="10" style="rounded=0;whiteSpace=wrap;html=1;fontSize=16;" vertex="1" parent="yQAr02pDaFe2VWgrR58J-78">
          <mxGeometry y="0.75" width="20" height="39.25" as="geometry" />
        </mxCell>
        <mxCell id="yQAr02pDaFe2VWgrR58J-80" value="clicks link" style="text;html=1;strokeColor=none;fillColor=none;align=left;verticalAlign=middle;whiteSpace=wrap;rounded=0;fontSize=12;fontFamily=inter;fontSource=https%3A%2F%2Ffonts.googleapis.com%2Fcss%3Ffamily%3Dinter;" vertex="1" parent="yQAr02pDaFe2VWgrR58J-78">
          <mxGeometry x="25" width="145" height="20" as="geometry" />
        </mxCell>
        <mxCell id="yQAr02pDaFe2VWgrR58J-81" style="edgeStyle=none;curved=1;rounded=0;orthogonalLoop=1;jettySize=auto;html=1;exitX=1;exitY=1;exitDx=0;exitDy=0;fontSize=12;startSize=8;endSize=8;entryX=0;entryY=0;entryDx=0;entryDy=0;" edge="1" parent="1" source="yQAr02pDaFe2VWgrR58J-79" target="yQAr02pDaFe2VWgrR58J-84">
          <mxGeometry relative="1" as="geometry">
            <mxPoint x="440" y="-790" as="targetPoint" />
          </mxGeometry>
        </mxCell>
        <mxCell id="yQAr02pDaFe2VWgrR58J-84" value="11" style="rounded=0;whiteSpace=wrap;html=1;fontSize=16;" vertex="1" parent="1">
          <mxGeometry x="442" y="-789.25" width="20" height="19.25" as="geometry" />
        </mxCell>
        <mxCell id="yQAr02pDaFe2VWgrR58J-85" value="verify token" style="text;html=1;strokeColor=none;fillColor=none;align=left;verticalAlign=middle;whiteSpace=wrap;rounded=0;fontSize=12;fontFamily=inter;fontSource=https%3A%2F%2Ffonts.googleapis.com%2Fcss%3Ffamily%3Dinter;" vertex="1" parent="1">
          <mxGeometry x="467" y="-790" width="145" height="20" as="geometry" />
        </mxCell>
        <mxCell id="yQAr02pDaFe2VWgrR58J-90" value="12" style="rounded=0;whiteSpace=wrap;html=1;fontSize=16;" vertex="1" parent="1">
          <mxGeometry x="442" y="-758.875" width="20" height="28.875" as="geometry" />
        </mxCell>
        <mxCell id="yQAr02pDaFe2VWgrR58J-91" value="if verified, set is_email_verified = true" style="text;html=1;strokeColor=none;fillColor=none;align=left;verticalAlign=middle;whiteSpace=wrap;rounded=0;fontSize=12;fontFamily=inter;fontSource=https%3A%2F%2Ffonts.googleapis.com%2Fcss%3Ffamily%3Dinter;" vertex="1" parent="1">
          <mxGeometry x="467" y="-760" width="145" height="30" as="geometry" />
        </mxCell>
        <mxCell id="yQAr02pDaFe2VWgrR58J-93" value="" style="group;fillColor=#cdeb8b;strokeColor=#36393d;" vertex="1" connectable="0" parent="1">
          <mxGeometry x="442" y="-720" width="170" height="20" as="geometry" />
        </mxCell>
        <mxCell id="yQAr02pDaFe2VWgrR58J-94" value="13" style="rounded=0;whiteSpace=wrap;html=1;fontSize=16;" vertex="1" parent="yQAr02pDaFe2VWgrR58J-93">
          <mxGeometry width="20" height="19.25" as="geometry" />
        </mxCell>
        <mxCell id="yQAr02pDaFe2VWgrR58J-95" value="publish user:updated" style="text;html=1;strokeColor=none;fillColor=none;align=left;verticalAlign=middle;whiteSpace=wrap;rounded=0;fontSize=12;fontFamily=inter;fontSource=https%3A%2F%2Ffonts.googleapis.com%2Fcss%3Ffamily%3Dinter;" vertex="1" parent="yQAr02pDaFe2VWgrR58J-93">
          <mxGeometry x="25" width="145" height="20" as="geometry" />
        </mxCell>
        <mxCell id="yQAr02pDaFe2VWgrR58J-96" style="edgeStyle=none;curved=1;rounded=0;orthogonalLoop=1;jettySize=auto;html=1;exitX=0.5;exitY=1;exitDx=0;exitDy=0;entryX=0;entryY=0;entryDx=0;entryDy=0;fontSize=12;startSize=8;endSize=8;" edge="1" parent="1" source="yQAr02pDaFe2VWgrR58J-94">
          <mxGeometry relative="1" as="geometry">
            <mxPoint x="617" y="-700" as="targetPoint" />
          </mxGeometry>
        </mxCell>
        <mxCell id="yQAr02pDaFe2VWgrR58J-76" style="edgeStyle=none;curved=1;rounded=0;orthogonalLoop=1;jettySize=auto;html=1;exitX=0;exitY=1;exitDx=0;exitDy=0;fontSize=12;startSize=8;endSize=8;entryX=1;entryY=0;entryDx=0;entryDy=0;" edge="1" parent="1" source="yQAr02pDaFe2VWgrR58J-59" target="yQAr02pDaFe2VWgrR58J-79">
          <mxGeometry relative="1" as="geometry">
            <mxPoint x="-30" y="-830" as="targetPoint" />
          </mxGeometry>
        </mxCell>
      </root>
    </mxGraphModel>
  </diagram>
  <diagram id="NE2P61kQdN3ANFXhl6RE" name="/generate-tokens">
    <mxGraphModel dx="875" dy="1728" grid="1" gridSize="10" guides="1" tooltips="1" connect="1" arrows="1" fold="1" page="1" pageScale="1" pageWidth="827" pageHeight="1169" math="0" shadow="0">
      <root>
        <mxCell id="0" />
        <mxCell id="1" parent="0" />
        <mxCell id="2x6ha-IGVpwOpAQ3rnLN-1" style="edgeStyle=none;curved=1;rounded=0;orthogonalLoop=1;jettySize=auto;html=1;fontSize=12;startSize=8;endSize=8;fontFamily=inter;fontSource=https%3A%2F%2Ffonts.googleapis.com%2Fcss%3Ffamily%3Dinter;" parent="1" source="2x6ha-IGVpwOpAQ3rnLN-2" edge="1">
          <mxGeometry relative="1" as="geometry">
            <mxPoint x="164" y="-830" as="targetPoint" />
          </mxGeometry>
        </mxCell>
        <mxCell id="2x6ha-IGVpwOpAQ3rnLN-2" value="Client" style="rounded=0;whiteSpace=wrap;html=1;fontFamily=inter;fontSource=https%3A%2F%2Ffonts.googleapis.com%2Fcss%3Ffamily%3Dinter;" parent="1" vertex="1">
          <mxGeometry x="104" y="-1160" width="120" height="40" as="geometry" />
        </mxCell>
        <mxCell id="2x6ha-IGVpwOpAQ3rnLN-3" style="edgeStyle=none;curved=1;rounded=0;orthogonalLoop=1;jettySize=auto;html=1;fontSize=12;startSize=8;endSize=8;fontFamily=inter;fontSource=https%3A%2F%2Ffonts.googleapis.com%2Fcss%3Ffamily%3Dinter;" parent="1" source="2x6ha-IGVpwOpAQ3rnLN-4" edge="1">
          <mxGeometry relative="1" as="geometry">
            <mxPoint x="474" y="-830" as="targetPoint" />
          </mxGeometry>
        </mxCell>
        <mxCell id="2x6ha-IGVpwOpAQ3rnLN-4" value="User" style="rounded=0;whiteSpace=wrap;html=1;fontFamily=inter;fontSource=https%3A%2F%2Ffonts.googleapis.com%2Fcss%3Ffamily%3Dinter;" parent="1" vertex="1">
          <mxGeometry x="414" y="-1160" width="120" height="40" as="geometry" />
        </mxCell>
        <mxCell id="2x6ha-IGVpwOpAQ3rnLN-5" style="edgeStyle=none;curved=1;rounded=0;orthogonalLoop=1;jettySize=auto;html=1;fontSize=12;startSize=8;endSize=8;fontFamily=inter;fontSource=https%3A%2F%2Ffonts.googleapis.com%2Fcss%3Ffamily%3Dinter;" parent="1" source="2x6ha-IGVpwOpAQ3rnLN-6" edge="1">
          <mxGeometry relative="1" as="geometry">
            <mxPoint x="654" y="-830" as="targetPoint" />
          </mxGeometry>
        </mxCell>
        <mxCell id="2x6ha-IGVpwOpAQ3rnLN-6" value="Identity" style="rounded=0;whiteSpace=wrap;html=1;fontFamily=inter;fontSource=https%3A%2F%2Ffonts.googleapis.com%2Fcss%3Ffamily%3Dinter;" parent="1" vertex="1">
          <mxGeometry x="594" y="-1160" width="120" height="40" as="geometry" />
        </mxCell>
        <mxCell id="lEz5kVDaH1w6bs4NxDob-1" style="edgeStyle=none;curved=1;rounded=0;orthogonalLoop=1;jettySize=auto;html=1;exitX=1;exitY=1;exitDx=0;exitDy=0;fontSize=12;startSize=8;endSize=8;entryX=0;entryY=0;entryDx=0;entryDy=0;dashed=1;" parent="1" target="lEz5kVDaH1w6bs4NxDob-4" edge="1">
          <mxGeometry relative="1" as="geometry">
            <mxPoint x="624" y="-1081" as="targetPoint" />
            <mxPoint x="174" y="-1080.75" as="sourcePoint" />
          </mxGeometry>
        </mxCell>
        <mxCell id="lEz5kVDaH1w6bs4NxDob-3" value="" style="group" parent="1" vertex="1" connectable="0">
          <mxGeometry x="644" y="-1080.75" width="170" height="20" as="geometry" />
        </mxCell>
        <mxCell id="lEz5kVDaH1w6bs4NxDob-4" value="9" style="rounded=0;whiteSpace=wrap;html=1;fontSize=16;" parent="lEz5kVDaH1w6bs4NxDob-3" vertex="1">
          <mxGeometry y="0.75" width="20" height="19.25" as="geometry" />
        </mxCell>
        <mxCell id="lEz5kVDaH1w6bs4NxDob-5" value="check if user exists" style="text;html=1;strokeColor=none;fillColor=none;align=left;verticalAlign=middle;whiteSpace=wrap;rounded=0;fontSize=12;fontFamily=inter;fontSource=https%3A%2F%2Ffonts.googleapis.com%2Fcss%3Ffamily%3Dinter;" parent="lEz5kVDaH1w6bs4NxDob-3" vertex="1">
          <mxGeometry x="25" width="145" height="20" as="geometry" />
        </mxCell>
        <mxCell id="lEz5kVDaH1w6bs4NxDob-6" value="" style="group;fillColor=#ffcccc;strokeColor=#36393d;" parent="1" vertex="1" connectable="0">
          <mxGeometry x="644" y="-1050" width="170" height="20" as="geometry" />
        </mxCell>
        <mxCell id="lEz5kVDaH1w6bs4NxDob-7" value="10" style="rounded=0;whiteSpace=wrap;html=1;fontSize=16;" parent="lEz5kVDaH1w6bs4NxDob-6" vertex="1">
          <mxGeometry y="0.75" width="20" height="19.25" as="geometry" />
        </mxCell>
        <mxCell id="lEz5kVDaH1w6bs4NxDob-8" value="/verify-password" style="text;html=1;strokeColor=none;fillColor=none;align=left;verticalAlign=middle;whiteSpace=wrap;rounded=0;fontSize=12;fontFamily=inter;fontSource=https%3A%2F%2Ffonts.googleapis.com%2Fcss%3Ffamily%3Dinter;" parent="lEz5kVDaH1w6bs4NxDob-6" vertex="1">
          <mxGeometry x="25" width="145" height="20" as="geometry" />
        </mxCell>
        <mxCell id="lEz5kVDaH1w6bs4NxDob-9" style="edgeStyle=none;curved=1;rounded=0;orthogonalLoop=1;jettySize=auto;html=1;exitX=1;exitY=1;exitDx=0;exitDy=0;fontSize=12;startSize=8;endSize=8;dashed=1;entryX=0;entryY=0;entryDx=0;entryDy=0;" parent="1" source="lEz5kVDaH1w6bs4NxDob-10" target="lEz5kVDaH1w6bs4NxDob-14" edge="1">
          <mxGeometry relative="1" as="geometry">
            <mxPoint x="624" y="-1010.7142857142858" as="targetPoint" />
          </mxGeometry>
        </mxCell>
        <mxCell id="lEz5kVDaH1w6bs4NxDob-10" value="11" style="rounded=0;whiteSpace=wrap;html=1;fontSize=16;" parent="1" vertex="1">
          <mxGeometry x="464" y="-1030" width="20" height="19.25" as="geometry" />
        </mxCell>
        <mxCell id="lEz5kVDaH1w6bs4NxDob-11" style="edgeStyle=none;curved=1;rounded=0;orthogonalLoop=1;jettySize=auto;html=1;exitX=0;exitY=1;exitDx=0;exitDy=0;fontSize=12;startSize=8;endSize=8;entryX=1;entryY=0;entryDx=0;entryDy=0;dashed=1;" parent="1" source="lEz5kVDaH1w6bs4NxDob-7" target="lEz5kVDaH1w6bs4NxDob-10" edge="1">
          <mxGeometry relative="1" as="geometry">
            <mxPoint x="504" y="-1030" as="targetPoint" />
          </mxGeometry>
        </mxCell>
        <mxCell id="lEz5kVDaH1w6bs4NxDob-12" value="send password" style="text;html=1;strokeColor=none;fillColor=none;align=right;verticalAlign=middle;whiteSpace=wrap;rounded=0;fontSize=12;fontFamily=inter;fontSource=https%3A%2F%2Ffonts.googleapis.com%2Fcss%3Ffamily%3Dinter;" parent="1" vertex="1">
          <mxGeometry x="314" y="-1030.37" width="145" height="20" as="geometry" />
        </mxCell>
        <mxCell id="lEz5kVDaH1w6bs4NxDob-13" value="" style="group" parent="1" vertex="1" connectable="0">
          <mxGeometry x="644" y="-1010" width="170" height="20" as="geometry" />
        </mxCell>
        <mxCell id="lEz5kVDaH1w6bs4NxDob-14" value="12" style="rounded=0;whiteSpace=wrap;html=1;fontSize=16;" parent="lEz5kVDaH1w6bs4NxDob-13" vertex="1">
          <mxGeometry y="0.75" width="20" height="19.25" as="geometry" />
        </mxCell>
        <mxCell id="lEz5kVDaH1w6bs4NxDob-15" value="verify user password" style="text;html=1;strokeColor=none;fillColor=none;align=left;verticalAlign=middle;whiteSpace=wrap;rounded=0;fontSize=12;fontFamily=inter;fontSource=https%3A%2F%2Ffonts.googleapis.com%2Fcss%3Ffamily%3Dinter;" parent="lEz5kVDaH1w6bs4NxDob-13" vertex="1">
          <mxGeometry x="25" width="145" height="20" as="geometry" />
        </mxCell>
        <mxCell id="lEz5kVDaH1w6bs4NxDob-16" style="edgeStyle=none;curved=1;rounded=0;orthogonalLoop=1;jettySize=auto;html=1;fontSize=12;startSize=8;endSize=8;exitX=0;exitY=1;exitDx=0;exitDy=0;entryX=1;entryY=0;entryDx=0;entryDy=0;" parent="1" source="lEz5kVDaH1w6bs4NxDob-23" target="lEz5kVDaH1w6bs4NxDob-17" edge="1">
          <mxGeometry relative="1" as="geometry">
            <mxPoint x="164" y="-910" as="targetPoint" />
          </mxGeometry>
        </mxCell>
        <mxCell id="lEz5kVDaH1w6bs4NxDob-17" value="15" style="rounded=0;whiteSpace=wrap;html=1;fontSize=16;" parent="1" vertex="1">
          <mxGeometry x="154" y="-899.25" width="20" height="19.25" as="geometry" />
        </mxCell>
        <mxCell id="lEz5kVDaH1w6bs4NxDob-18" value="tokens are now in cookies" style="text;html=1;strokeColor=none;fillColor=none;align=right;verticalAlign=middle;whiteSpace=wrap;rounded=0;fontSize=12;fontFamily=inter;fontSource=https%3A%2F%2Ffonts.googleapis.com%2Fcss%3Ffamily%3Dinter;" parent="1" vertex="1">
          <mxGeometry x="14" y="-900" width="130" height="20" as="geometry" />
        </mxCell>
        <mxCell id="lEz5kVDaH1w6bs4NxDob-19" value="" style="group" parent="1" vertex="1" connectable="0">
          <mxGeometry x="644" y="-980" width="170" height="30" as="geometry" />
        </mxCell>
        <mxCell id="lEz5kVDaH1w6bs4NxDob-20" value="13" style="rounded=0;whiteSpace=wrap;html=1;fontSize=16;" parent="lEz5kVDaH1w6bs4NxDob-19" vertex="1">
          <mxGeometry y="0.75" width="20" height="29.25" as="geometry" />
        </mxCell>
        <mxCell id="lEz5kVDaH1w6bs4NxDob-21" value="save access and refresh tokens" style="text;html=1;strokeColor=none;fillColor=none;align=left;verticalAlign=middle;whiteSpace=wrap;rounded=0;fontSize=12;fontFamily=inter;fontSource=https%3A%2F%2Ffonts.googleapis.com%2Fcss%3Ffamily%3Dinter;" parent="lEz5kVDaH1w6bs4NxDob-19" vertex="1">
          <mxGeometry x="25" width="145" height="30" as="geometry" />
        </mxCell>
        <mxCell id="lEz5kVDaH1w6bs4NxDob-22" value="" style="group" parent="1" vertex="1" connectable="0">
          <mxGeometry x="644" y="-940" width="170" height="40" as="geometry" />
        </mxCell>
        <mxCell id="lEz5kVDaH1w6bs4NxDob-23" value="14" style="rounded=0;whiteSpace=wrap;html=1;fontSize=16;" parent="lEz5kVDaH1w6bs4NxDob-22" vertex="1">
          <mxGeometry y="0.75" width="20" height="39.25" as="geometry" />
        </mxCell>
        <mxCell id="lEz5kVDaH1w6bs4NxDob-24" value="set httpOnly, secure, cookie on client with tokens" style="text;html=1;strokeColor=none;fillColor=none;align=left;verticalAlign=middle;whiteSpace=wrap;rounded=0;fontSize=12;fontFamily=inter;fontSource=https%3A%2F%2Ffonts.googleapis.com%2Fcss%3Ffamily%3Dinter;" parent="lEz5kVDaH1w6bs4NxDob-22" vertex="1">
          <mxGeometry x="25" width="145" height="40" as="geometry" />
        </mxCell>
        <mxCell id="clRHQzc01Emq2DQamabk-5" value="" style="group" parent="1" vertex="1" connectable="0">
          <mxGeometry x="24" y="-1100.75" width="150" height="40" as="geometry" />
        </mxCell>
        <mxCell id="clRHQzc01Emq2DQamabk-2" value="client sends email, password and&lt;br style=&quot;border-color: var(--border-color);&quot;&gt;&lt;span style=&quot;background-color: rgb(255, 255, 255);&quot;&gt;displayName&lt;/span&gt;" style="text;html=1;strokeColor=none;fillColor=none;align=right;verticalAlign=middle;whiteSpace=wrap;rounded=0;fontSize=12;fontFamily=inter;fontSource=https%3A%2F%2Ffonts.googleapis.com%2Fcss%3Ffamily%3Dinter;container=0;" parent="clRHQzc01Emq2DQamabk-5" vertex="1">
          <mxGeometry width="120" height="40" as="geometry" />
        </mxCell>
        <mxCell id="clRHQzc01Emq2DQamabk-3" value="1" style="rounded=0;whiteSpace=wrap;html=1;fontSize=16;container=0;" parent="clRHQzc01Emq2DQamabk-5" vertex="1">
          <mxGeometry x="130" width="20" height="20" as="geometry" />
        </mxCell>
      </root>
    </mxGraphModel>
  </diagram>
  <diagram id="qkOOW3p0oujMwDbJF43H" name="/me">
    <mxGraphModel dx="1050" dy="1840" grid="1" gridSize="10" guides="1" tooltips="1" connect="1" arrows="1" fold="1" page="1" pageScale="1" pageWidth="827" pageHeight="1169" math="0" shadow="0">
      <root>
        <mxCell id="0" />
        <mxCell id="1" parent="0" />
        <mxCell id="zeNma_by0tcVsznyShqb-4" style="edgeStyle=none;curved=1;rounded=0;orthogonalLoop=1;jettySize=auto;html=1;fontSize=12;startSize=8;endSize=8;" parent="1" source="zeNma_by0tcVsznyShqb-1" edge="1">
          <mxGeometry relative="1" as="geometry">
            <mxPoint x="175" y="-920" as="targetPoint" />
          </mxGeometry>
        </mxCell>
        <mxCell id="zeNma_by0tcVsznyShqb-1" value="Client" style="rounded=0;whiteSpace=wrap;html=1;fontFamily=inter;fontSource=https%3A%2F%2Ffonts.googleapis.com%2Fcss%3Ffamily%3Dinter;" parent="1" vertex="1">
          <mxGeometry x="115" y="-1160" width="120" height="40" as="geometry" />
        </mxCell>
        <mxCell id="zeNma_by0tcVsznyShqb-6" style="edgeStyle=none;curved=1;rounded=0;orthogonalLoop=1;jettySize=auto;html=1;fontSize=12;startSize=8;endSize=8;" parent="1" source="zeNma_by0tcVsznyShqb-3" edge="1">
          <mxGeometry relative="1" as="geometry">
            <mxPoint x="455" y="-920" as="targetPoint" />
          </mxGeometry>
        </mxCell>
        <mxCell id="zeNma_by0tcVsznyShqb-3" value="User" style="rounded=0;whiteSpace=wrap;html=1;fontFamily=inter;fontSource=https%3A%2F%2Ffonts.googleapis.com%2Fcss%3Ffamily%3Dinter;" parent="1" vertex="1">
          <mxGeometry x="395" y="-1160" width="120" height="40" as="geometry" />
        </mxCell>
        <mxCell id="FFp1TGznygiZZA5B6Qv5-2" value="sends a request get /me" style="text;html=1;strokeColor=none;fillColor=none;align=right;verticalAlign=middle;whiteSpace=wrap;rounded=0;fontSize=12;fontFamily=inter;fontSource=https%3A%2F%2Ffonts.googleapis.com%2Fcss%3Ffamily%3Dinter;" parent="1" vertex="1">
          <mxGeometry x="35" y="-1100" width="120" height="32.5" as="geometry" />
        </mxCell>
        <mxCell id="lxoVpjz4p4-hPzR8mut3-5" style="edgeStyle=none;curved=1;rounded=0;orthogonalLoop=1;jettySize=auto;html=1;exitX=1;exitY=1;exitDx=0;exitDy=0;entryX=0;entryY=0;entryDx=0;entryDy=0;fontSize=12;startSize=8;endSize=8;" parent="1" source="FFp1TGznygiZZA5B6Qv5-3" target="lxoVpjz4p4-hPzR8mut3-2" edge="1">
          <mxGeometry relative="1" as="geometry" />
        </mxCell>
        <mxCell id="FFp1TGznygiZZA5B6Qv5-3" value="1" style="rounded=0;whiteSpace=wrap;html=1;fontSize=16;" parent="1" vertex="1">
          <mxGeometry x="165" y="-1100" width="20" height="20" as="geometry" />
        </mxCell>
        <mxCell id="lxoVpjz4p4-hPzR8mut3-6" value="" style="group" parent="1" vertex="1" connectable="0">
          <mxGeometry x="445" y="-1080" width="170" height="30" as="geometry" />
        </mxCell>
        <mxCell id="lxoVpjz4p4-hPzR8mut3-2" value="2" style="rounded=0;whiteSpace=wrap;html=1;fontSize=16;" parent="lxoVpjz4p4-hPzR8mut3-6" vertex="1">
          <mxGeometry y="0.75" width="20" height="29.25" as="geometry" />
        </mxCell>
        <mxCell id="lxoVpjz4p4-hPzR8mut3-3" value="check if user is authenticated" style="text;html=1;strokeColor=none;fillColor=none;align=left;verticalAlign=middle;whiteSpace=wrap;rounded=0;fontSize=12;fontFamily=inter;fontSource=https%3A%2F%2Ffonts.googleapis.com%2Fcss%3Ffamily%3Dinter;" parent="lxoVpjz4p4-hPzR8mut3-6" vertex="1">
          <mxGeometry x="25" width="145" height="30" as="geometry" />
        </mxCell>
        <mxCell id="DFqemNS5LXudW9SMYd1e-1" style="edgeStyle=none;curved=1;rounded=0;orthogonalLoop=1;jettySize=auto;html=1;exitX=0;exitY=1;exitDx=0;exitDy=0;fontSize=12;startSize=8;endSize=8;entryX=1;entryY=0;entryDx=0;entryDy=0;" parent="1" source="lxoVpjz4p4-hPzR8mut3-8" target="DFqemNS5LXudW9SMYd1e-2" edge="1">
          <mxGeometry relative="1" as="geometry">
            <mxPoint x="215" y="-1009.8" as="targetPoint" />
          </mxGeometry>
        </mxCell>
        <mxCell id="DFqemNS5LXudW9SMYd1e-3" value="" style="group" parent="1" vertex="1" connectable="0">
          <mxGeometry x="445" y="-1040" width="170" height="30" as="geometry" />
        </mxCell>
        <mxCell id="lxoVpjz4p4-hPzR8mut3-8" value="3" style="rounded=0;whiteSpace=wrap;html=1;fontSize=16;" parent="DFqemNS5LXudW9SMYd1e-3" vertex="1">
          <mxGeometry y="0.75" width="20" height="29.25" as="geometry" />
        </mxCell>
        <mxCell id="lxoVpjz4p4-hPzR8mut3-9" value="finds user info like email, displayName, etc." style="text;html=1;strokeColor=none;fillColor=none;align=left;verticalAlign=middle;whiteSpace=wrap;rounded=0;fontSize=12;fontFamily=inter;fontSource=https%3A%2F%2Ffonts.googleapis.com%2Fcss%3Ffamily%3Dinter;" parent="DFqemNS5LXudW9SMYd1e-3" vertex="1">
          <mxGeometry x="25" width="145" height="30" as="geometry" />
        </mxCell>
        <mxCell id="DFqemNS5LXudW9SMYd1e-5" value="" style="group" parent="1" vertex="1" connectable="0">
          <mxGeometry x="10" y="-1010" width="175" height="30" as="geometry" />
        </mxCell>
        <mxCell id="DFqemNS5LXudW9SMYd1e-2" value="4" style="rounded=0;whiteSpace=wrap;html=1;fontSize=16;" parent="DFqemNS5LXudW9SMYd1e-5" vertex="1">
          <mxGeometry x="155" width="20" height="30" as="geometry" />
        </mxCell>
        <mxCell id="DFqemNS5LXudW9SMYd1e-4" value="client will get 401 or currentUser" style="text;html=1;strokeColor=none;fillColor=none;align=right;verticalAlign=middle;whiteSpace=wrap;rounded=0;fontSize=12;fontFamily=inter;fontSource=https%3A%2F%2Ffonts.googleapis.com%2Fcss%3Ffamily%3Dinter;" parent="DFqemNS5LXudW9SMYd1e-5" vertex="1">
          <mxGeometry width="145" height="30" as="geometry" />
        </mxCell>
      </root>
    </mxGraphModel>
  </diagram>
  <diagram id="YzWKhDz0Di-Uwy4HWuqO" name="/refresh">
    <mxGraphModel dx="1050" dy="1840" grid="1" gridSize="10" guides="1" tooltips="1" connect="1" arrows="1" fold="1" page="1" pageScale="1" pageWidth="827" pageHeight="1169" math="0" shadow="0">
      <root>
        <mxCell id="0" />
        <mxCell id="1" parent="0" />
        <mxCell id="tapBRXu8qmLF1FgVUDWE-1" style="edgeStyle=none;curved=1;rounded=0;orthogonalLoop=1;jettySize=auto;html=1;fontSize=12;startSize=8;endSize=8;fontFamily=inter;fontSource=https%3A%2F%2Ffonts.googleapis.com%2Fcss%3Ffamily%3Dinter;" parent="1" source="tapBRXu8qmLF1FgVUDWE-2" edge="1">
          <mxGeometry relative="1" as="geometry">
            <mxPoint x="164" y="-840" as="targetPoint" />
          </mxGeometry>
        </mxCell>
        <mxCell id="tapBRXu8qmLF1FgVUDWE-2" value="Client" style="rounded=0;whiteSpace=wrap;html=1;fontFamily=inter;fontSource=https%3A%2F%2Ffonts.googleapis.com%2Fcss%3Ffamily%3Dinter;" parent="1" vertex="1">
          <mxGeometry x="104" y="-1160" width="120" height="40" as="geometry" />
        </mxCell>
        <mxCell id="tapBRXu8qmLF1FgVUDWE-3" style="edgeStyle=none;curved=1;rounded=0;orthogonalLoop=1;jettySize=auto;html=1;fontSize=12;startSize=8;endSize=8;fontFamily=inter;fontSource=https%3A%2F%2Ffonts.googleapis.com%2Fcss%3Ffamily%3Dinter;" parent="1" source="tapBRXu8qmLF1FgVUDWE-4" edge="1">
          <mxGeometry relative="1" as="geometry">
            <mxPoint x="474" y="-840" as="targetPoint" />
          </mxGeometry>
        </mxCell>
        <mxCell id="tapBRXu8qmLF1FgVUDWE-4" value="User" style="rounded=0;whiteSpace=wrap;html=1;fontFamily=inter;fontSource=https%3A%2F%2Ffonts.googleapis.com%2Fcss%3Ffamily%3Dinter;" parent="1" vertex="1">
          <mxGeometry x="414" y="-1160" width="120" height="40" as="geometry" />
        </mxCell>
        <mxCell id="tapBRXu8qmLF1FgVUDWE-5" style="edgeStyle=none;curved=1;rounded=0;orthogonalLoop=1;jettySize=auto;html=1;fontSize=12;startSize=8;endSize=8;fontFamily=inter;fontSource=https%3A%2F%2Ffonts.googleapis.com%2Fcss%3Ffamily%3Dinter;" parent="1" source="tapBRXu8qmLF1FgVUDWE-6" edge="1">
          <mxGeometry relative="1" as="geometry">
            <mxPoint x="654" y="-840" as="targetPoint" />
          </mxGeometry>
        </mxCell>
        <mxCell id="tapBRXu8qmLF1FgVUDWE-6" value="Identity" style="rounded=0;whiteSpace=wrap;html=1;fontFamily=inter;fontSource=https%3A%2F%2Ffonts.googleapis.com%2Fcss%3Ffamily%3Dinter;" parent="1" vertex="1">
          <mxGeometry x="594" y="-1160" width="120" height="40" as="geometry" />
        </mxCell>
        <mxCell id="tapBRXu8qmLF1FgVUDWE-7" style="edgeStyle=none;curved=1;rounded=0;orthogonalLoop=1;jettySize=auto;html=1;exitX=1;exitY=1;exitDx=0;exitDy=0;fontSize=12;startSize=8;endSize=8;entryX=0;entryY=0;entryDx=0;entryDy=0;dashed=1;" parent="1" source="tapBRXu8qmLF1FgVUDWE-8" target="tapBRXu8qmLF1FgVUDWE-10" edge="1">
          <mxGeometry relative="1" as="geometry">
            <mxPoint x="624" y="-1081" as="targetPoint" />
          </mxGeometry>
        </mxCell>
        <mxCell id="tapBRXu8qmLF1FgVUDWE-8" value="8" style="rounded=0;whiteSpace=wrap;html=1;fontSize=16;" parent="1" vertex="1">
          <mxGeometry x="154" y="-1100" width="20" height="19.25" as="geometry" />
        </mxCell>
        <mxCell id="tapBRXu8qmLF1FgVUDWE-9" value="" style="group" parent="1" vertex="1" connectable="0">
          <mxGeometry x="644" y="-1080.75" width="170" height="20" as="geometry" />
        </mxCell>
        <mxCell id="tapBRXu8qmLF1FgVUDWE-10" value="9" style="rounded=0;whiteSpace=wrap;html=1;fontSize=16;" parent="tapBRXu8qmLF1FgVUDWE-9" vertex="1">
          <mxGeometry y="0.75" width="20" height="19.25" as="geometry" />
        </mxCell>
        <mxCell id="tapBRXu8qmLF1FgVUDWE-11" value="check if user exists" style="text;html=1;strokeColor=none;fillColor=none;align=left;verticalAlign=middle;whiteSpace=wrap;rounded=0;fontSize=12;fontFamily=inter;fontSource=https%3A%2F%2Ffonts.googleapis.com%2Fcss%3Ffamily%3Dinter;" parent="tapBRXu8qmLF1FgVUDWE-9" vertex="1">
          <mxGeometry x="25" width="145" height="20" as="geometry" />
        </mxCell>
        <mxCell id="tapBRXu8qmLF1FgVUDWE-12" value="" style="group;fillColor=#ffcccc;strokeColor=#36393d;" parent="1" vertex="1" connectable="0">
          <mxGeometry x="644" y="-1050" width="170" height="20" as="geometry" />
        </mxCell>
        <mxCell id="tapBRXu8qmLF1FgVUDWE-13" value="10" style="rounded=0;whiteSpace=wrap;html=1;fontSize=16;" parent="tapBRXu8qmLF1FgVUDWE-12" vertex="1">
          <mxGeometry y="0.75" width="20" height="19.25" as="geometry" />
        </mxCell>
        <mxCell id="tapBRXu8qmLF1FgVUDWE-14" value="get user password" style="text;html=1;strokeColor=none;fillColor=none;align=left;verticalAlign=middle;whiteSpace=wrap;rounded=0;fontSize=12;fontFamily=inter;fontSource=https%3A%2F%2Ffonts.googleapis.com%2Fcss%3Ffamily%3Dinter;" parent="tapBRXu8qmLF1FgVUDWE-12" vertex="1">
          <mxGeometry x="25" width="145" height="20" as="geometry" />
        </mxCell>
        <mxCell id="tapBRXu8qmLF1FgVUDWE-15" style="edgeStyle=none;curved=1;rounded=0;orthogonalLoop=1;jettySize=auto;html=1;exitX=1;exitY=1;exitDx=0;exitDy=0;fontSize=12;startSize=8;endSize=8;dashed=1;entryX=0;entryY=0;entryDx=0;entryDy=0;" parent="1" source="tapBRXu8qmLF1FgVUDWE-16" edge="1">
          <mxGeometry relative="1" as="geometry">
            <mxPoint x="644" y="-1009.25" as="targetPoint" />
          </mxGeometry>
        </mxCell>
        <mxCell id="tapBRXu8qmLF1FgVUDWE-16" value="11" style="rounded=0;whiteSpace=wrap;html=1;fontSize=16;" parent="1" vertex="1">
          <mxGeometry x="464" y="-1030" width="20" height="19.25" as="geometry" />
        </mxCell>
        <mxCell id="tapBRXu8qmLF1FgVUDWE-17" style="edgeStyle=none;curved=1;rounded=0;orthogonalLoop=1;jettySize=auto;html=1;exitX=0;exitY=1;exitDx=0;exitDy=0;fontSize=12;startSize=8;endSize=8;entryX=1;entryY=0;entryDx=0;entryDy=0;dashed=1;" parent="1" source="tapBRXu8qmLF1FgVUDWE-13" target="tapBRXu8qmLF1FgVUDWE-16" edge="1">
          <mxGeometry relative="1" as="geometry">
            <mxPoint x="504" y="-1030" as="targetPoint" />
          </mxGeometry>
        </mxCell>
        <mxCell id="tapBRXu8qmLF1FgVUDWE-18" value="send password" style="text;html=1;strokeColor=none;fillColor=none;align=right;verticalAlign=middle;whiteSpace=wrap;rounded=0;fontSize=12;fontFamily=inter;fontSource=https%3A%2F%2Ffonts.googleapis.com%2Fcss%3Ffamily%3Dinter;" parent="1" vertex="1">
          <mxGeometry x="314" y="-1030.37" width="145" height="20" as="geometry" />
        </mxCell>
        <mxCell id="tapBRXu8qmLF1FgVUDWE-22" style="edgeStyle=none;curved=1;rounded=0;orthogonalLoop=1;jettySize=auto;html=1;fontSize=12;startSize=8;endSize=8;exitX=0;exitY=1;exitDx=0;exitDy=0;entryX=1;entryY=0;entryDx=0;entryDy=0;" parent="1" source="tapBRXu8qmLF1FgVUDWE-29" target="tapBRXu8qmLF1FgVUDWE-23" edge="1">
          <mxGeometry relative="1" as="geometry">
            <mxPoint x="164" y="-940" as="targetPoint" />
          </mxGeometry>
        </mxCell>
        <mxCell id="tapBRXu8qmLF1FgVUDWE-23" value="14" style="rounded=0;whiteSpace=wrap;html=1;fontSize=16;" parent="1" vertex="1">
          <mxGeometry x="154" y="-929.25" width="20" height="19.25" as="geometry" />
        </mxCell>
        <mxCell id="tapBRXu8qmLF1FgVUDWE-24" value="tokens are now in cookies" style="text;html=1;strokeColor=none;fillColor=none;align=right;verticalAlign=middle;whiteSpace=wrap;rounded=0;fontSize=12;fontFamily=inter;fontSource=https%3A%2F%2Ffonts.googleapis.com%2Fcss%3Ffamily%3Dinter;" parent="1" vertex="1">
          <mxGeometry x="14" y="-930" width="130" height="20" as="geometry" />
        </mxCell>
        <mxCell id="tapBRXu8qmLF1FgVUDWE-25" value="" style="group" parent="1" vertex="1" connectable="0">
          <mxGeometry x="644" y="-1010" width="170" height="30" as="geometry" />
        </mxCell>
        <mxCell id="tapBRXu8qmLF1FgVUDWE-26" value="12" style="rounded=0;whiteSpace=wrap;html=1;fontSize=16;" parent="tapBRXu8qmLF1FgVUDWE-25" vertex="1">
          <mxGeometry y="0.75" width="20" height="29.25" as="geometry" />
        </mxCell>
        <mxCell id="tapBRXu8qmLF1FgVUDWE-27" value="save access and refresh tokens" style="text;html=1;strokeColor=none;fillColor=none;align=left;verticalAlign=middle;whiteSpace=wrap;rounded=0;fontSize=12;fontFamily=inter;fontSource=https%3A%2F%2Ffonts.googleapis.com%2Fcss%3Ffamily%3Dinter;" parent="tapBRXu8qmLF1FgVUDWE-25" vertex="1">
          <mxGeometry x="25" width="145" height="30" as="geometry" />
        </mxCell>
        <mxCell id="tapBRXu8qmLF1FgVUDWE-28" value="" style="group" parent="1" vertex="1" connectable="0">
          <mxGeometry x="644" y="-970" width="170" height="40" as="geometry" />
        </mxCell>
        <mxCell id="tapBRXu8qmLF1FgVUDWE-29" value="13" style="rounded=0;whiteSpace=wrap;html=1;fontSize=16;" parent="tapBRXu8qmLF1FgVUDWE-28" vertex="1">
          <mxGeometry y="0.75" width="20" height="39.25" as="geometry" />
        </mxCell>
        <mxCell id="tapBRXu8qmLF1FgVUDWE-30" value="set httpOnly, secure, cookie on client with tokens" style="text;html=1;strokeColor=none;fillColor=none;align=left;verticalAlign=middle;whiteSpace=wrap;rounded=0;fontSize=12;fontFamily=inter;fontSource=https%3A%2F%2Ffonts.googleapis.com%2Fcss%3Ffamily%3Dinter;" parent="tapBRXu8qmLF1FgVUDWE-28" vertex="1">
          <mxGeometry x="25" width="145" height="40" as="geometry" />
        </mxCell>
        <mxCell id="EMZBPH4VeWY8bPhrSsHJ-1" value="TODO" style="text;html=1;align=center;verticalAlign=middle;resizable=0;points=[];autosize=1;strokeColor=none;fillColor=none;fontSize=32;" vertex="1" parent="1">
          <mxGeometry x="340" y="-822" width="120" height="50" as="geometry" />
        </mxCell>
      </root>
    </mxGraphModel>
  </diagram>
</mxfile>
